<svg id="Layer_1" data-name="Layer 1" xmlns="http://www.w3.org/2000/svg" viewBox="0 0 368.34 72.85">
  <defs>
    <style>
      .cls-1 {
        fill: #ffca7e;
      }

      .cls-2 {
        fill: #ff7200;
      }

      .cls-3 {
        fill: #bce1a5;
      }

      .cls-4 {
        fill: #53a040;
      }
    </style>
  </defs>
  <g>
    <g>
      <path d="M103.87,14.63h2.88v18h.09a7.51,7.51,0,0,1,1.69-2,10,10,0,0,1,2.18-1.39,11,11,0,0,1,2.47-.82,13.11,13.11,0,0,1,2.54-.26,12.45,12.45,0,0,1,4.68.86,10.93,10.93,0,0,1,6.13,6.12,13.16,13.16,0,0,1,0,9.36,11,11,0,0,1-2.43,3.7,10.85,10.85,0,0,1-3.7,2.42,12.26,12.26,0,0,1-4.68.87,12.4,12.4,0,0,1-2.54-.27,10.52,10.52,0,0,1-2.47-.81,10,10,0,0,1-2.18-1.4,7.21,7.21,0,0,1-1.69-2h-.09v3.89h-2.88Zm2.59,25.2a8.74,8.74,0,0,0,.72,3.53,9.16,9.16,0,0,0,2,2.88,9.36,9.36,0,0,0,2.93,1.94,9.14,9.14,0,0,0,3.64.73,8.94,8.94,0,0,0,3.65-.73,8.17,8.17,0,0,0,4.54-4.82,10.68,10.68,0,0,0,0-7.06,8.44,8.44,0,0,0-1.75-2.88,8.57,8.57,0,0,0-2.79-1.94,8.94,8.94,0,0,0-3.65-.72,9.13,9.13,0,0,0-3.64.72,9.54,9.54,0,0,0-2.93,1.94,9.16,9.16,0,0,0-2,2.88A8.78,8.78,0,0,0,106.46,39.83Z"/>
      <path d="M133.82,35c0-.42,0-.92,0-1.52s-.05-1.19-.07-1.8,0-1.17-.07-1.7,0-.94,0-1.22h2.88c0,.83.06,1.63.07,2.39a8.22,8.22,0,0,0,.12,1.49,9.88,9.88,0,0,1,2.83-3.21,7,7,0,0,1,4.23-1.25,4.61,4.61,0,0,1,.84.07c.27.05.55.1.84.17l-.34,2.83a3.4,3.4,0,0,0-1.1-.19,8,8,0,0,0-3.24.6,6.13,6.13,0,0,0-2.26,1.65,7,7,0,0,0-1.32,2.48,10.32,10.32,0,0,0-.43,3V50.92h-2.88Z"/>
      <path d="M168.52,46.75a9.67,9.67,0,0,1-4.15,3.64,13.14,13.14,0,0,1-5.45,1.11,11.71,11.71,0,0,1-4.6-.87,10.37,10.37,0,0,1-3.56-2.42,10.67,10.67,0,0,1-2.28-3.7,13.67,13.67,0,0,1-.79-4.72,12.51,12.51,0,0,1,.82-4.61,11,11,0,0,1,2.3-3.68,10.82,10.82,0,0,1,8-3.33,10.59,10.59,0,0,1,4.49.89,9.74,9.74,0,0,1,5.25,5.69,11.07,11.07,0,0,1,.68,3.79v2H150.57a9.82,9.82,0,0,0,.36,2.33,8.13,8.13,0,0,0,1.32,2.76A8.49,8.49,0,0,0,154.82,48a8.12,8.12,0,0,0,4.15,1,9.3,9.3,0,0,0,4.27-1.06A7.59,7.59,0,0,0,166.41,45ZM166.32,38a6.52,6.52,0,0,0-.6-2.78,7.29,7.29,0,0,0-1.64-2.28,7.5,7.5,0,0,0-2.44-1.56,7.82,7.82,0,0,0-3-.58,7.37,7.37,0,0,0-3.92,1A8.67,8.67,0,0,0,151,36.35a6.39,6.39,0,0,0-.39,1.61Z"/>
      <path d="M192.86,41.61c0,1.09,0,2.06,0,2.93s0,1.66.08,2.4.07,1.42.12,2.06.12,1.28.21,1.92H190.6a21,21,0,0,1-.28-3.6h-.1a8,8,0,0,1-3.1,3.17,9.71,9.71,0,0,1-4.68,1,11.26,11.26,0,0,1-2.83-.36A7.48,7.48,0,0,1,177.12,50a5.94,5.94,0,0,1-2.5-5.07,5.9,5.9,0,0,1,1.3-4,8,8,0,0,1,3.19-2.23,14.84,14.84,0,0,1,4-1,36.28,36.28,0,0,1,3.77-.22h3.36V36.14A4.68,4.68,0,0,0,188.49,32,7.58,7.58,0,0,0,184,30.76a10.1,10.1,0,0,0-6.77,2.5l-1.68-2A10.37,10.37,0,0,1,179.52,29a14,14,0,0,1,4.51-.79,10.1,10.1,0,0,1,6.43,1.89q2.4,1.9,2.4,6.12Zm-5.76-1.82a27,27,0,0,0-3.53.23,13,13,0,0,0-3.07.82,5.65,5.65,0,0,0-2.18,1.54,3.55,3.55,0,0,0-.82,2.4,3.5,3.5,0,0,0,.46,1.8,3.92,3.92,0,0,0,1.17,1.29,5.32,5.32,0,0,0,1.61.77,6.14,6.14,0,0,0,1.8.27,9.18,9.18,0,0,0,3.79-.68,6.37,6.37,0,0,0,2.38-1.75A6,6,0,0,0,189.93,44a11.22,11.22,0,0,0,.34-2.76V39.79Z"/>
      <path d="M200.54,14.63h2.88v24.2l10.94-10h4.23L207.16,38.92l12.77,12h-4.37L203.42,39.21V50.92h-2.88Z"/>
      <path d="M223,28.75h2.88v3.88h.1a7.66,7.66,0,0,1,1.68-2,10.2,10.2,0,0,1,2.18-1.39,11.1,11.1,0,0,1,2.48-.82,13.11,13.11,0,0,1,2.54-.26,12.53,12.53,0,0,1,4.68.86,10.88,10.88,0,0,1,6.12,6.12,13.16,13.16,0,0,1,0,9.36,11.15,11.15,0,0,1-2.42,3.7,11,11,0,0,1-3.7,2.42,12.68,12.68,0,0,1-7.22.6,10.6,10.6,0,0,1-2.48-.81,10.24,10.24,0,0,1-2.18-1.4A7.35,7.35,0,0,1,226,47h-.1V61.87H223Zm2.6,11.08a8.58,8.58,0,0,0,.72,3.53,9,9,0,0,0,2,2.88,9.36,9.36,0,0,0,2.93,1.94,9.18,9.18,0,0,0,3.65.73,9,9,0,0,0,3.65-.73,8.48,8.48,0,0,0,2.78-1.94A8.29,8.29,0,0,0,243,43.36a10.68,10.68,0,0,0,0-7.06,8.29,8.29,0,0,0-1.75-2.88,8.63,8.63,0,0,0-2.78-1.94,9,9,0,0,0-3.65-.72,9.18,9.18,0,0,0-3.65.72,9.54,9.54,0,0,0-2.93,1.94,9,9,0,0,0-2,2.88A8.61,8.61,0,0,0,225.6,39.83Z"/>
      <path d="M251.71,39.83a12.33,12.33,0,0,1,.86-4.68,11.32,11.32,0,0,1,2.4-3.69,10.73,10.73,0,0,1,3.7-2.43,12.63,12.63,0,0,1,4.7-.86,12.45,12.45,0,0,1,4.68.86,11.12,11.12,0,0,1,3.7,2.43,10.9,10.9,0,0,1,2.42,3.69,13.16,13.16,0,0,1,0,9.36,10.8,10.8,0,0,1-6.12,6.12,12.26,12.26,0,0,1-4.68.87,12.44,12.44,0,0,1-4.7-.87,10.57,10.57,0,0,1-3.7-2.42,11.26,11.26,0,0,1-2.4-3.7A12.26,12.26,0,0,1,251.71,39.83Zm2.88,0a10.26,10.26,0,0,0,.6,3.53,8.29,8.29,0,0,0,1.75,2.88,8.38,8.38,0,0,0,2.78,1.94,9.49,9.49,0,0,0,7.3,0,8.38,8.38,0,0,0,2.78-1.94,8.46,8.46,0,0,0,1.76-2.88,10.86,10.86,0,0,0,0-7.06A8.25,8.25,0,0,0,267,31.48a9.61,9.61,0,0,0-7.3,0,8.53,8.53,0,0,0-2.78,1.94,8.29,8.29,0,0,0-1.75,2.88A10.3,10.3,0,0,0,254.59,39.83Z"/>
      <path d="M281.23,20a2.08,2.08,0,0,1,.62-1.54,2.12,2.12,0,0,1,1.54-.62,2.16,2.16,0,1,1,0,4.32,2.12,2.12,0,0,1-1.54-.62A2.08,2.08,0,0,1,281.23,20Zm.72,8.79h2.88V50.92H282Z"/>
      <path d="M293,35c0-.42,0-.92-.05-1.52s-.06-1.19-.07-1.8,0-1.17-.08-1.7,0-.94,0-1.22h2.88c0,.83.05,1.63.07,2.39a6.65,6.65,0,0,0,.12,1.49H296a7.86,7.86,0,0,1,2.88-3.14,8.41,8.41,0,0,1,4.71-1.32,9.38,9.38,0,0,1,4.22.82,6.79,6.79,0,0,1,2.57,2.13,8.11,8.11,0,0,1,1.29,3.05,17.31,17.31,0,0,1,.36,3.55v13.2h-2.88V37.87a14.11,14.11,0,0,0-.24-2.62A6.9,6.9,0,0,0,308,33a4.41,4.41,0,0,0-1.68-1.61,5.73,5.73,0,0,0-2.8-.6,8.32,8.32,0,0,0-3,.55A6.48,6.48,0,0,0,298.1,33a8.18,8.18,0,0,0-1.63,2.84,12,12,0,0,0-.6,4V50.92H293Z"/>
      <path d="M330.52,31.34h-6.33V45.79a3.13,3.13,0,0,0,.81,2.3,3.09,3.09,0,0,0,2.26.82,6.81,6.81,0,0,0,1.65-.22,11.72,11.72,0,0,0,1.61-.55l.24,2.59a17.33,17.33,0,0,1-1.87.53,8.55,8.55,0,0,1-1.87.24,6.93,6.93,0,0,1-2.64-.46,4.66,4.66,0,0,1-1.78-1.22,4.85,4.85,0,0,1-1-1.8,7.66,7.66,0,0,1-.31-2.23V31.34h-4.8V28.75h4.8V22.36h2.88v6.39h6.33Z"/>
      <path d="M335.71,45.26A6.21,6.21,0,0,0,338.39,48a8,8,0,0,0,3.75.94,6.07,6.07,0,0,0,1.82-.29,5.8,5.8,0,0,0,1.63-.82,4.33,4.33,0,0,0,1.18-1.27,3.23,3.23,0,0,0,.46-1.7,2.74,2.74,0,0,0-1-2.31,7.31,7.31,0,0,0-2.42-1.2,29.15,29.15,0,0,0-3.17-.74,13.81,13.81,0,0,1-3.17-1,6.94,6.94,0,0,1-2.42-1.8,4.88,4.88,0,0,1-1-3.27,5.7,5.7,0,0,1,.68-2.83,6.1,6.1,0,0,1,1.75-2,7.68,7.68,0,0,1,2.42-1.18,11,11,0,0,1,7.47.63,7,7,0,0,1,3.09,3.16l-2.59,1.54a6.08,6.08,0,0,0-2-2.33,5.78,5.78,0,0,0-3.19-.79,5.88,5.88,0,0,0-1.61.24,5.59,5.59,0,0,0-1.51.67,3.86,3.86,0,0,0-1.13,1.11,2.7,2.7,0,0,0-.46,1.53,2.56,2.56,0,0,0,1,2.21,7.44,7.44,0,0,0,2.42,1.13,29.56,29.56,0,0,0,3.17.69,13.32,13.32,0,0,1,3.17.94,6.45,6.45,0,0,1,2.42,1.87,5.42,5.42,0,0,1,1,3.48,6.51,6.51,0,0,1-.65,3,6.25,6.25,0,0,1-1.78,2.14,7.86,7.86,0,0,1-2.57,1.29,10.36,10.36,0,0,1-3,.44,12.3,12.3,0,0,1-5.26-1.11,8,8,0,0,1-3.67-3.4Z"/>
    </g>
    <g>
      <g>
        <rect class="cls-1" x="26.43" y="38.26" width="53.72" height="16.02"/>
        <rect class="cls-2" x="26.43" y="38.26" width="2.83" height="16.02"/>
        <rect class="cls-2" x="77.32" y="38.26" width="2.83" height="16.02"/>
      </g>
      <g>
        <rect class="cls-3" x="15.12" y="16.02" width="53.72" height="16.02"/>
        <rect class="cls-4" x="15.12" y="16.02" width="2.83" height="16.02"/>
        <rect class="cls-4" x="66.01" y="16.02" width="2.83" height="16.02"/>
      </g>
    </g>
  </g>
</svg>
