<svg id="Layer_1" data-name="Layer 1" xmlns="http://www.w3.org/2000/svg" viewBox="0 0 338.72 72.85">
  <defs>
    <style>
      .cls-1 {
        fill: #ffca7e;
      }

      .cls-2 {
        fill: #ff7200;
      }

      .cls-3 {
        fill: #bce1a5;
      }

      .cls-4 {
        fill: #53a040;
      }
    </style>
  </defs>
  <g>
    <g>
      <path d="M90.59,14.63h2.88v18h.1a7.66,7.66,0,0,1,1.68-2,10.2,10.2,0,0,1,2.18-1.39,11.19,11.19,0,0,1,2.47-.82,13.29,13.29,0,0,1,2.55-.26,12.53,12.53,0,0,1,4.68.86,11,11,0,0,1,6.12,6.12,13.16,13.16,0,0,1,0,9.36,11,11,0,0,1-2.43,3.7,10.9,10.9,0,0,1-3.69,2.42,12.34,12.34,0,0,1-4.68.87,12.57,12.57,0,0,1-2.55-.27,10.67,10.67,0,0,1-2.47-.81A10.24,10.24,0,0,1,95.25,49a7.35,7.35,0,0,1-1.68-2h-.1v3.89H90.59Zm2.59,25.2a8.74,8.74,0,0,0,.72,3.53,9.16,9.16,0,0,0,2,2.88,9.36,9.36,0,0,0,2.93,1.94,9.18,9.18,0,0,0,3.65.73,9,9,0,0,0,3.65-.73,8.48,8.48,0,0,0,2.78-1.94,8.29,8.29,0,0,0,1.75-2.88,10.68,10.68,0,0,0,0-7.06,8.29,8.29,0,0,0-1.75-2.88,8.63,8.63,0,0,0-2.78-1.94,9,9,0,0,0-3.65-.72,9.18,9.18,0,0,0-3.65.72,9.54,9.54,0,0,0-2.93,1.94,9.16,9.16,0,0,0-2,2.88A8.78,8.78,0,0,0,93.18,39.83Z"/>
      <path d="M120.54,35c0-.42,0-.92,0-1.52s-.06-1.19-.08-1.8,0-1.17-.07-1.7,0-.94,0-1.22h2.88c0,.83.06,1.63.08,2.39a6.65,6.65,0,0,0,.12,1.49,9.77,9.77,0,0,1,2.83-3.21,7,7,0,0,1,4.22-1.25,4.61,4.61,0,0,1,.84.07c.27.05.55.1.84.17l-.33,2.83a3.5,3.5,0,0,0-1.11-.19,8,8,0,0,0-3.24.6,6.1,6.1,0,0,0-2.25,1.65,6.73,6.73,0,0,0-1.32,2.48,10.31,10.31,0,0,0-.44,3V50.92h-2.88Z"/>
      <path d="M155.25,46.75a9.73,9.73,0,0,1-4.15,3.64,13.18,13.18,0,0,1-5.45,1.11,11.76,11.76,0,0,1-4.61-.87,10.23,10.23,0,0,1-3.55-2.42,10.67,10.67,0,0,1-2.28-3.7,13.43,13.43,0,0,1-.79-4.72,12.72,12.72,0,0,1,.81-4.61A10.8,10.8,0,0,1,141,29.06a10.8,10.8,0,0,1,4.46-.89,10.55,10.55,0,0,1,4.49.89,9.72,9.72,0,0,1,3.27,2.35,10,10,0,0,1,2,3.34,11.05,11.05,0,0,1,.67,3.79v2H137.3a9.82,9.82,0,0,0,.36,2.33A8.13,8.13,0,0,0,139,45.64,8.45,8.45,0,0,0,141.54,48a8.16,8.16,0,0,0,4.16,1A9.33,9.33,0,0,0,150,47.85,7.71,7.71,0,0,0,153.14,45ZM153,38a6.52,6.52,0,0,0-.6-2.78,7.26,7.26,0,0,0-1.63-2.28,7.66,7.66,0,0,0-2.45-1.56,7.75,7.75,0,0,0-3-.58,7.33,7.33,0,0,0-3.91,1A8.48,8.48,0,0,0,139,33.93a8.86,8.86,0,0,0-1.3,2.42A6.23,6.23,0,0,0,137.3,38Z"/>
      <path d="M179.58,41.61c0,1.09,0,2.06,0,2.93s0,1.66.07,2.4.07,1.42.12,2.06.12,1.28.22,1.92h-2.69a21,21,0,0,1-.29-3.6h-.1a8.07,8.07,0,0,1-3.09,3.17,9.74,9.74,0,0,1-4.68,1,11.2,11.2,0,0,1-2.83-.36,7.62,7.62,0,0,1-2.5-1.15,6.12,6.12,0,0,1-1.8-2,6.2,6.2,0,0,1-.7-3,6,6,0,0,1,1.3-4,8,8,0,0,1,3.19-2.23,14.93,14.93,0,0,1,4-1,36.43,36.43,0,0,1,3.77-.22H177V36.14A4.7,4.7,0,0,0,175.22,32a7.63,7.63,0,0,0-4.47-1.25,10.12,10.12,0,0,0-6.77,2.5l-1.68-2A10.37,10.37,0,0,1,166.24,29a14.06,14.06,0,0,1,4.51-.79,10.1,10.1,0,0,1,6.43,1.89q2.4,1.9,2.4,6.12Zm-5.76-1.82a26.8,26.8,0,0,0-3.52.23,13.08,13.08,0,0,0-3.08.82A5.65,5.65,0,0,0,165,42.38a3.55,3.55,0,0,0-.82,2.4,3.5,3.5,0,0,0,.46,1.8,4,4,0,0,0,1.18,1.29,5.27,5.27,0,0,0,1.6.77,6.19,6.19,0,0,0,1.8.27,9.26,9.26,0,0,0,3.8-.68,6.33,6.33,0,0,0,2.37-1.75A6.17,6.17,0,0,0,176.66,44a11.7,11.7,0,0,0,.33-2.76V39.79Z"/>
      <path d="M187.26,14.63h2.88v24.2l11-10h4.22L193.89,38.92l12.77,12h-4.37L190.14,39.21V50.92h-2.88Z"/>
      <path d="M209.73,28.75h2.88v3.88h.09a7.66,7.66,0,0,1,1.68-2,10,10,0,0,1,2.19-1.39,10.86,10.86,0,0,1,2.47-.82,13.11,13.11,0,0,1,2.54-.26,12.45,12.45,0,0,1,4.68.86,11,11,0,0,1,3.7,2.43,10.9,10.9,0,0,1,2.42,3.69,13,13,0,0,1,0,9.36,10.8,10.8,0,0,1-6.12,6.12,12.26,12.26,0,0,1-4.68.87,12.4,12.4,0,0,1-2.54-.27,10.37,10.37,0,0,1-2.47-.81,10.06,10.06,0,0,1-2.19-1.4,7.35,7.35,0,0,1-1.68-2h-.09V61.87h-2.88Zm2.59,11.08a8.74,8.74,0,0,0,.72,3.53,9,9,0,0,0,2,2.88,9.32,9.32,0,0,0,2.92,1.94,9.18,9.18,0,0,0,3.65.73,8.94,8.94,0,0,0,3.65-.73,8.25,8.25,0,0,0,4.54-4.82,10.68,10.68,0,0,0,0-7.06A8.31,8.31,0,0,0,228,33.42a8.42,8.42,0,0,0-2.78-1.94,8.94,8.94,0,0,0-3.65-.72,9.18,9.18,0,0,0-3.65.72A9.49,9.49,0,0,0,215,33.42a9,9,0,0,0-2,2.88A8.78,8.78,0,0,0,212.32,39.83Z"/>
      <path d="M238.43,39.83a12.53,12.53,0,0,1,.86-4.68,11.32,11.32,0,0,1,2.4-3.69,10.83,10.83,0,0,1,3.7-2.43,12.67,12.67,0,0,1,4.7-.86,12.45,12.45,0,0,1,4.68.86,11,11,0,0,1,3.7,2.43,10.9,10.9,0,0,1,2.42,3.69,13,13,0,0,1,0,9.36,10.8,10.8,0,0,1-6.12,6.12,12.26,12.26,0,0,1-4.68.87,12.48,12.48,0,0,1-4.7-.87,10.66,10.66,0,0,1-3.7-2.42,11.26,11.26,0,0,1-2.4-3.7A12.45,12.45,0,0,1,238.43,39.83Zm2.88,0a10.26,10.26,0,0,0,.6,3.53,8.29,8.29,0,0,0,1.75,2.88,8.42,8.42,0,0,0,2.79,1.94,9.47,9.47,0,0,0,7.29,0,8.17,8.17,0,0,0,4.54-4.82,10.68,10.68,0,0,0,0-7.06,8.44,8.44,0,0,0-1.75-2.88,8.57,8.57,0,0,0-2.79-1.94,9.59,9.59,0,0,0-7.29,0,8.57,8.57,0,0,0-2.79,1.94,8.29,8.29,0,0,0-1.75,2.88A10.3,10.3,0,0,0,241.31,39.83Z"/>
      <path d="M268,20a2.12,2.12,0,1,1,.62,1.54A2.12,2.12,0,0,1,268,20Zm.72,8.79h2.88V50.92h-2.88Z"/>
      <path d="M279.71,35c0-.42,0-.92,0-1.52s-.05-1.19-.07-1.8,0-1.17-.07-1.7,0-.94,0-1.22h2.88c0,.83.06,1.63.07,2.39a8.22,8.22,0,0,0,.12,1.49h.15a7.72,7.72,0,0,1,2.88-3.14,8.37,8.37,0,0,1,4.7-1.32,9.33,9.33,0,0,1,4.22.82,6.71,6.71,0,0,1,2.57,2.13,8,8,0,0,1,1.3,3.05,17.31,17.31,0,0,1,.36,3.55v13.2h-2.88V37.87a14.11,14.11,0,0,0-.24-2.62,6.9,6.9,0,0,0-.84-2.28,4.41,4.41,0,0,0-1.68-1.61,5.77,5.77,0,0,0-2.81-.6,8.32,8.32,0,0,0-3,.55A6.55,6.55,0,0,0,284.82,33a8.18,8.18,0,0,0-1.63,2.84,12,12,0,0,0-.6,4V50.92h-2.88Z"/>
      <path d="M317.25,31.34h-6.34V45.79a3.1,3.1,0,0,0,.82,2.3,3,3,0,0,0,2.25.82,6.89,6.89,0,0,0,1.66-.22,12.2,12.2,0,0,0,1.61-.55l.24,2.59a17.55,17.55,0,0,1-1.88.53,8.55,8.55,0,0,1-1.87.24A7,7,0,0,1,311.1,51a4.54,4.54,0,0,1-1.77-1.22,4.87,4.87,0,0,1-1-1.8,7.66,7.66,0,0,1-.31-2.23V31.34h-4.8V28.75H308V22.36h2.88v6.39h6.34Z"/>
      <path d="M322.43,45.26A6.23,6.23,0,0,0,325.12,48a8,8,0,0,0,3.74.94,6.13,6.13,0,0,0,1.83-.29,5.94,5.94,0,0,0,1.63-.82,4.29,4.29,0,0,0,1.17-1.27,3.14,3.14,0,0,0,.46-1.7,2.76,2.76,0,0,0-1-2.31,7.46,7.46,0,0,0-2.43-1.2,28.61,28.61,0,0,0-3.17-.74,13.72,13.72,0,0,1-3.16-1,7.08,7.08,0,0,1-2.43-1.8,4.93,4.93,0,0,1-1-3.27,5.7,5.7,0,0,1,.67-2.83,6.21,6.21,0,0,1,1.75-2,7.62,7.62,0,0,1,2.43-1.18,10.05,10.05,0,0,1,2.73-.38,10.25,10.25,0,0,1,4.73,1,7,7,0,0,1,3.1,3.16l-2.6,1.54a6.08,6.08,0,0,0-2-2.33,5.76,5.76,0,0,0-3.19-.79,5.88,5.88,0,0,0-1.61.24,5.59,5.59,0,0,0-1.51.67,4,4,0,0,0-1.13,1.11,2.7,2.7,0,0,0-.45,1.53,2.57,2.57,0,0,0,1,2.21,7.59,7.59,0,0,0,2.43,1.13,29.36,29.36,0,0,0,3.16.69,13.18,13.18,0,0,1,3.17.94,6.56,6.56,0,0,1,2.43,1.87,5.48,5.48,0,0,1,1,3.48,6.51,6.51,0,0,1-.65,3,6.22,6.22,0,0,1-1.77,2.14,8,8,0,0,1-2.57,1.29,10.42,10.42,0,0,1-3,.44,12.22,12.22,0,0,1-5.25-1.11,7.91,7.91,0,0,1-3.67-3.4Z"/>
    </g>
    <g>
      <g>
        <rect class="cls-1" x="13.15" y="38.26" width="53.72" height="16.02"/>
        <rect class="cls-2" x="13.15" y="38.26" width="2.83" height="16.02"/>
        <rect class="cls-2" x="64.05" y="38.26" width="2.83" height="16.02"/>
      </g>
      <g>
        <rect class="cls-3" x="1.84" y="16.02" width="53.72" height="16.02"/>
        <rect class="cls-4" x="1.84" y="16.02" width="2.83" height="16.02"/>
        <rect class="cls-4" x="52.74" y="16.02" width="2.83" height="16.02"/>
      </g>
    </g>
  </g>
</svg>
